<svg width="18" height="16" viewBox="0 0 18 16" fill="none" xmlns="http://www.w3.org/2000/svg">
<path fill-rule="evenodd" clip-rule="evenodd" d="M17.7359 9.26562L16.7984 1.76562C16.6803 0.827882 15.8827 0.124676 14.9375 0.125H1.5C0.809644 0.125 0.25 0.684644 0.25 1.375V8.25C0.25 8.94036 0.809644 9.5 1.5 9.5H4.86406L7.81563 15.4047C7.9216 15.6165 8.13818 15.7502 8.375 15.75C10.1009 15.75 11.5 14.3509 11.5 12.625V11.375H15.875C16.4132 11.3752 16.9256 11.1441 17.2817 10.7404C17.6378 10.3368 17.8032 9.79964 17.7359 9.26562ZM4.625 8.25H1.5V1.375H4.625V8.25ZM16.3438 9.91328C16.2259 10.0489 16.0547 10.1262 15.875 10.125H10.875C10.5298 10.125 10.25 10.4048 10.25 10.75V12.625C10.2502 13.5189 9.61946 14.2886 8.74297 14.4641L5.875 8.72734V1.375H14.9375C15.2526 1.37489 15.5184 1.60929 15.5578 1.92188L16.4953 9.42188C16.519 9.59995 16.4636 9.77949 16.3438 9.91328Z" fill="#757575"/>
</svg>
